<?xml version="1.0" encoding="UTF-8"?>
<svg width="283px" height="30px" viewBox="0 0 283 30" version="1.1" xmlns="http://www.w3.org/2000/svg" xmlns:xlink="http://www.w3.org/1999/xlink">
    <title>9E0F7A9E-C1C3-4BB2-8A75-E0B354739833</title>
    <defs>
        <polygon id="path-1" points="0.000548827032 0.274114981 24.0788103 0.274114981 24.0788103 27.7737646 0.000548827032 27.7737646"></polygon>
        <polygon id="path-3" points="0.305635676 0.274114981 28.88062 0.274114981 28.88062 27.7737646 0.305635676 27.7737646"></polygon>
        <polygon id="path-5" points="0.507725985 0.235593977 24.7006314 0.235593977 24.7006314 27.1699871 0.507725985 27.1699871"></polygon>
        <polygon id="path-7" points="0.138792258 0.274114981 19.9124204 0.274114981 19.9124204 27.7737646 0.138792258 27.7737646"></polygon>
        <polygon id="path-9" points="0.248496684 0.274114981 28.823481 0.274114981 28.823481 27.7737646 0.248496684 27.7737646"></polygon>
        <polygon id="path-11" points="0.350212627 0.274114981 20.1236578 0.274114981 20.1236578 27.7737646 0.350212627 27.7737646"></polygon>
    </defs>
    <g id="Counselors" stroke="none" stroke-width="1" fill="none" fill-rule="evenodd">
        <g id="1.-Home---Desktop" transform="translate(-340.000000, -4746.000000)">
            <g id="counselors-logo" transform="translate(340.000000, 4746.500000)">
                <g id="Group-3" transform="translate(0.000000, 0.329783)">
                    <mask id="mask-2" fill="white">
                        <use xlink:href="#path-1"></use>
                    </mask>
                    <g id="Clip-2"></g>
                    <path d="M6.87674173,26.113618 C4.67960418,25.0068939 2.98372865,23.416544 1.79094457,21.3419645 C0.59633106,19.267385 0.000548827032,16.8341617 0.000548827032,14.0422946 C0.000548827032,11.2510313 0.59633106,8.81780799 1.79094457,6.74322853 C2.98372865,4.66864907 4.67960418,3.07165761 6.87674173,1.95225414 C9.07387928,0.834058227 11.6198269,0.273752715 14.5158042,0.273752715 C16.4208438,0.273752715 18.1215978,0.462735069 19.6211152,0.839492224 C21.119413,1.21685316 22.5036767,1.8085551 23.7739064,2.61278672 L23.7739064,8.95003527 C22.6561287,8.07033146 21.3932167,7.42851599 19.9827312,7.02640018 C18.5734654,6.62428437 16.9538158,6.42262269 15.125612,6.42262269 C12.5083169,6.42262269 10.489853,7.09583459 9.0677812,8.44105084 C7.64509957,9.78626709 6.93406366,11.6537509 6.93406366,14.0422946 C6.93406366,16.4320459 7.65180746,18.3049637 9.08668524,19.6628593 C10.521563,21.0213587 12.5345386,21.7000046 15.125612,21.7000046 C16.9538158,21.7000046 18.5923694,21.4862673 20.0400532,21.0587929 C21.4877369,20.6313184 22.8341926,19.9520687 24.0788103,19.0222514 L24.0788103,25.3214619 C21.665191,26.9564914 18.4777256,27.7740061 14.5158042,27.7740061 C11.6198269,27.7740061 9.07387928,27.2197384 6.87674173,26.113618" id="Fill-1" fill="#0005B8" mask="url(#mask-2)"></path>
                </g>
                <g id="Group-6" transform="translate(29.270775, 0.329783)">
                    <mask id="mask-4" fill="white">
                        <use xlink:href="#path-3"></use>
                    </mask>
                    <g id="Clip-5"></g>
                    <path d="M18.3266762,20.6062616 C19.4444539,20.0024841 20.3329439,19.1348559 20.9939755,18.0033769 C21.6543974,16.8712941 21.9843034,15.5514365 21.9843034,14.0419927 C21.9843034,12.5337566 21.6604955,11.2199367 21.0128796,10.1005333 C20.3652637,8.98233736 19.482262,8.11470911 18.3650941,7.49825229 C17.2467065,6.88179547 16.0020888,6.57326517 14.630631,6.57326517 C13.2335613,6.57326517 11.9767474,6.88179547 10.8595795,7.49825229 C9.74119197,8.11470911 8.85940987,8.98233736 8.21179397,10.1005333 C7.56356827,11.2199367 7.23976032,12.5337566 7.23976032,14.0419927 C7.23976032,15.5514365 7.56356827,16.8712941 8.21179397,18.0033769 C8.85940987,19.1348559 9.74850966,20.0024841 10.8784835,20.6062616 C12.0084574,21.2100391 13.259783,21.5119279 14.630631,21.5119279 C15.9770867,21.5119279 17.2088984,21.2100391 18.3266762,20.6062616 M7.33550015,26.0384477 C5.16397452,24.8822138 3.44980476,23.2659015 2.19177124,21.1907182 C0.934347531,19.1161388 0.305635676,16.7336328 0.305635676,14.0419927 C0.305635676,11.3515602 0.934347531,8.96301648 2.19177124,6.87515392 C3.44980476,4.78789513 5.16397452,3.16614879 7.33550015,2.00931111 C9.50702577,0.853077218 11.9383295,0.274054603 14.630631,0.274054603 C17.2979304,0.274054603 19.7176478,0.853077218 21.8891734,2.00931111 C24.060699,3.16614879 25.7687707,4.78789513 27.0133885,6.87515392 C28.2573964,8.96301648 28.88062,11.3515602 28.88062,14.0419927 C28.88062,16.7336328 28.2573964,19.1161388 27.0133885,21.1907182 C25.7687707,23.2659015 24.060699,24.8822138 21.8891734,26.0384477 C19.7176478,27.1958892 17.2979304,27.774308 14.630631,27.774308 C11.9383295,27.774308 9.50702577,27.1958892 7.33550015,26.0384477" id="Fill-4" fill="#0005B8" mask="url(#mask-4)"></path>
                </g>
                <g id="Group-9" transform="translate(64.029820, 0.933561)">
                    <mask id="mask-6" fill="white">
                        <use xlink:href="#path-5"></use>
                    </mask>
                    <g id="Clip-8"></g>
                    <path d="M3.55554543,23.9821627 C1.52305599,21.8574697 0.507725985,19.0474893 0.507725985,15.5510138 L0.507725985,0.235593977 L7.25098078,0.235593977 L7.25098078,15.6270898 C7.25098078,17.3871012 7.72724068,18.7202419 8.67976049,19.6253043 C9.63228029,20.5303668 10.9470259,20.9831999 12.6233876,20.9831999 C14.2997493,20.9831999 15.6077871,20.5303668 16.5475009,19.6253043 C17.4872147,18.7202419 17.9567667,17.3871012 17.9567667,15.6270898 L17.9567667,0.235593977 L24.7006314,0.235593977 L24.7006314,15.5510138 C24.7006314,19.0722442 23.6913994,21.8888662 21.6723258,24.0008798 C19.6520325,26.1128935 16.635923,27.1701079 12.6233876,27.1701079 C8.60963259,27.1701079 5.58742507,26.1080633 3.55554543,23.9821627" id="Fill-7" fill="#0005B8" mask="url(#mask-6)"></path>
                </g>
                <polygon id="Fill-10" fill="#0005B8" points="95.9294769 1.16909436 102.597116 1.16909436 112.38819 16.8618751 112.38819 1.16909436 119.132054 1.16909436 119.132054 27.537265 112.502834 27.537265 102.673341 11.8076538 102.673341 27.537265 95.9294769 27.537265"></polygon>
                <g id="Group-14" transform="translate(126.230217, 0.329783)">
                    <mask id="mask-8" fill="white">
                        <use xlink:href="#path-7"></use>
                    </mask>
                    <g id="Clip-13"></g>
                    <path d="M4.2159673,27.3023351 C2.56460774,26.9877671 1.20534612,26.5542548 0.138792258,26.0005909 L0.138792258,20.0026653 C1.51025003,20.7072736 2.93963954,21.2349751 4.42513138,21.5869774 C5.91062321,21.9395835 7.32720676,22.1152827 8.67366241,22.1152827 C9.91767035,22.1152827 10.857994,21.9263004 11.4928039,21.5495432 C12.1270041,21.1721823 12.4447139,20.6311976 12.4447139,19.9271931 C12.4447139,19.3994916 12.2739677,18.9406207 11.9306459,18.5505804 C11.5879339,18.1605401 11.0860621,17.8025001 10.4262501,17.4752527 C9.7652184,17.1492128 8.73647261,16.6957759 7.34001272,16.1173571 C4.87577935,15.0867089 3.08538361,13.9425506 1.96760589,12.6848821 C0.84921836,11.4278173 0.291244212,9.8809394 0.291244212,8.04424827 C0.291244212,6.5360121 0.716890065,5.19079585 1.56757196,4.00799574 C2.41886367,2.82700697 3.60615948,1.90866141 5.13006921,1.25416661 C6.65397893,0.600879359 8.40656659,0.273631959 10.3872224,0.273631959 C12.01297,0.273631959 13.4606537,0.399821455 14.7314932,0.650992891 C16.0005033,0.902768105 17.2195091,1.30548769 18.3885107,1.8579441 L18.3885107,7.7055291 C16.1529552,6.54869143 13.9058134,5.96966881 11.6452559,5.96966881 C10.4262501,5.96966881 9.45421641,6.16529272 8.73037454,6.5547292 C8.00653266,6.94476946 7.64491663,7.50386742 7.64491663,8.23323063 C7.64491663,8.96259384 8.01263074,9.553692 8.74927858,10.0059213 C9.48592642,10.4593582 10.845188,11.0758151 12.8264536,11.854688 C14.6290455,12.5840512 16.0322133,13.3013389 17.035957,14.0047397 C18.0390908,14.709348 18.7696406,15.5268627 19.2263866,16.4572838 C19.6837425,17.3871012 19.9124204,18.5692975 19.9124204,20.0026653 C19.9124204,22.4419263 19.0172225,24.3468443 17.2268268,25.7174192 C15.4358212,27.0885979 12.7630336,27.7738854 9.20724425,27.7738854 C7.53027276,27.7738854 5.86610724,27.6162994 4.2159673,27.3023351" id="Fill-12" fill="#0005B8" mask="url(#mask-8)"></path>
                </g>
                <polygon id="Fill-15" fill="#0005B8" points="152.109851 1.16909436 171.006576 1.16909436 171.006576 6.7902628 158.853716 6.7902628 158.853716 11.7321816 167.730078 11.7321816 167.730078 16.9753853 158.853716 16.9753853 158.853716 21.9167003 171.006576 21.9167003 171.006576 27.537265 152.109851 27.537265"></polygon>
                <polygon id="Fill-17" fill="#0005B8" points="177.634821 1.16909436 184.378685 1.16909436 184.378685 21.9167003 195.960155 21.9167003 195.960155 27.537265 177.634821 27.537265"></polygon>
                <g id="Group-21" transform="translate(199.407155, 0.329783)">
                    <mask id="mask-10" fill="white">
                        <use xlink:href="#path-9"></use>
                    </mask>
                    <g id="Clip-20"></g>
                    <path d="M18.2695372,20.6062616 C19.3873149,20.0024841 20.2758049,19.1348559 20.9368366,18.0033769 C21.5972584,16.8712941 21.9271644,15.5514365 21.9271644,14.0419927 C21.9271644,12.5337566 21.6033565,11.2199367 20.9557406,10.1005333 C20.3081247,8.98233736 19.425123,8.11470911 18.3079551,7.49825229 C17.1895675,6.88179547 15.9449498,6.57326517 14.573492,6.57326517 C13.1764223,6.57326517 11.9196084,6.88179547 10.8024405,7.49825229 C9.68405298,8.11470911 8.80227088,8.98233736 8.15465498,10.1005333 C7.50642928,11.2199367 7.18262133,12.5337566 7.18262133,14.0419927 C7.18262133,15.5514365 7.50642928,16.8712941 8.15465498,18.0033769 C8.80227088,19.1348559 9.69137067,20.0024841 10.8213445,20.6062616 C11.9513184,21.2100391 13.2026441,21.5119279 14.573492,21.5119279 C15.9199477,21.5119279 17.1517595,21.2100391 18.2695372,20.6062616 M7.27836115,26.0384477 C5.10683553,24.8822138 3.39266577,23.2659015 2.13463225,21.1907182 C0.877208539,19.1161388 0.248496684,16.7336328 0.248496684,14.0419927 C0.248496684,11.3515602 0.877208539,8.96301648 2.13463225,6.87515392 C3.39266577,4.78789513 5.10683553,3.16614879 7.27836115,2.00931111 C9.44988678,0.853077218 11.8811905,0.274054603 14.573492,0.274054603 C17.2407914,0.274054603 19.6605088,0.853077218 21.8320344,2.00931111 C24.00356,3.16614879 25.7116317,4.78789513 26.9556397,6.87515392 C28.2002574,8.96301648 28.823481,11.3515602 28.823481,14.0419927 C28.823481,16.7336328 28.2002574,19.1161388 26.9556397,21.1907182 C25.7116317,23.2659015 24.00356,24.8822138 21.8320344,26.0384477 C19.6605088,27.1958892 17.2407914,27.774308 14.573492,27.774308 C11.8811905,27.774308 9.44988678,27.1958892 7.27836115,26.0384477" id="Fill-19" fill="#0005B8" mask="url(#mask-10)"></path>
                </g>
                <path d="M245.564057,13.6556355 C246.909903,13.6556355 247.951455,13.3984263 248.688103,12.8828003 C249.42475,12.3677781 249.793074,11.480829 249.793074,10.2225567 C249.793074,8.91537844 249.430848,8.01635375 248.707007,7.52548265 C247.983774,7.03521533 246.935515,6.79008167 245.564057,6.79008167 L241.52591,6.79008167 L241.52591,13.6556355 L245.564057,13.6556355 Z M234.782045,1.16891322 L246.745255,1.16891322 C249.8693,1.16891322 252.31341,1.94959752 254.079413,3.508551 C255.844197,5.06810826 256.727199,7.30570765 256.727199,10.2225567 C256.727199,12.1842298 256.294845,13.8566934 255.431967,15.2405514 C254.567869,16.6238057 253.348864,17.6544538 251.77434,18.3337035 L256.499131,27.5370838 L249.565006,27.5370838 L245.335989,19.276804 L241.52591,19.276804 L241.52591,27.5370838 L234.782045,27.5370838 L234.782045,1.16891322 Z" id="Fill-22" fill="#0005B8"></path>
                <g id="Group-26" transform="translate(261.607552, 0.329783)">
                    <mask id="mask-12" fill="white">
                        <use xlink:href="#path-11"></use>
                    </mask>
                    <g id="Clip-25"></g>
                    <path d="M4.42677786,27.3023351 C2.7754183,26.9877671 1.41676649,26.5542548 0.350212627,26.0005909 L0.350212627,20.0026653 C1.7216704,20.7072736 3.1504501,21.2349751 4.63655175,21.5869774 C6.12204358,21.9395835 7.53862713,22.1152827 8.88508278,22.1152827 C10.1290907,22.1152827 11.0694144,21.9263004 11.7042243,21.5495432 C12.3384244,21.1721823 12.6561343,20.6311976 12.6561343,19.9271931 C12.6561343,19.3994916 12.4853881,18.9406207 12.1420663,18.5505804 C11.7993543,18.1605401 11.2974825,17.8025001 10.6376704,17.4752527 C9.97663876,17.1492128 8.94728318,16.6957759 7.55082328,16.1173571 C5.08719972,15.0867089 3.29619417,13.9425506 2.17902626,12.6848821 C1.06063873,11.4278173 0.50266458,9.8809394 0.50266458,8.04424827 C0.50266458,6.5360121 0.927700626,5.19079585 1.77899233,4.00799574 C2.63028404,2.82700697 3.81757985,1.90866141 5.34148958,1.25416661 C6.8653993,0.600879359 8.61737715,0.273631959 10.5986427,0.273631959 C12.2243904,0.273631959 13.6720741,0.399821455 14.9429136,0.650992891 C16.2119237,0.902768105 17.4309295,1.30548769 18.599931,1.8579441 L18.599931,7.7055291 C16.3643756,6.54869143 14.1172338,5.96966881 11.8566763,5.96966881 C10.6376704,5.96966881 9.66563678,6.16529272 8.94179491,6.5547292 C8.21795303,6.94476946 7.856337,7.50386742 7.856337,8.23323063 C7.856337,8.96259384 8.22405111,9.553692 8.96069895,10.0059213 C9.69734679,10.4593582 11.0566084,11.0758151 13.037874,11.854688 C14.8404659,12.5840512 16.2436337,13.3013389 17.2473773,14.0047397 C18.2505112,14.709348 18.9804511,15.5268627 19.437807,16.4572838 C19.8951628,17.3871012 20.1238408,18.5692975 20.1238408,20.0026653 C20.1238408,22.4419263 19.2286429,24.3468443 17.4382472,25.7174192 C15.6466318,27.0885979 12.9738442,27.7738854 9.41866462,27.7738854 C7.74169313,27.7738854 6.07752761,27.6162994 4.42677786,27.3023351" id="Fill-24" fill="#0005B8" mask="url(#mask-12)"></path>
                </g>
            </g>
        </g>
    </g>
</svg>