<?xml version="1.0" encoding="UTF-8"?>
<svg width="200px" height="22px" viewBox="0 0 200 22" version="1.1" xmlns="http://www.w3.org/2000/svg" xmlns:xlink="http://www.w3.org/1999/xlink">
    <title>216AA29A-CEB2-4B6F-97EC-03178A385FBB</title>
    <defs>
        <polygon id="path-1" points="0.000387622582 0.196511728 17.0062517 0.196511728 17.0062517 19.9108799 0.000387622582 19.9108799"></polygon>
        <polygon id="path-3" points="0.215862709 0.196511728 20.3976478 0.196511728 20.3976478 19.9108799 0.215862709 19.9108799"></polygon>
        <polygon id="path-5" points="0.358593957 0.168896203 17.445428 0.168896203 17.445428 19.4780347 0.358593957 19.4780347"></polygon>
        <polygon id="path-7" points="0.0980254439 0.196511728 14.0636364 0.196511728 14.0636364 19.9108799 0.0980254439 19.9108799"></polygon>
        <polygon id="path-9" points="0.175506891 0.196511728 20.3572919 0.196511728 20.3572919 19.9108799 0.175506891 19.9108799"></polygon>
        <polygon id="path-11" points="0.247346276 0.196511728 14.212828 0.196511728 14.212828 19.9108799 0.247346276 19.9108799"></polygon>
    </defs>
    <g id="Counselors" stroke="none" stroke-width="1" fill="none" fill-rule="evenodd">
        <g id="1.-Home---Desktop" transform="translate(-340.000000, -43.000000)">
            <g id="counselors-logo-neg" transform="translate(340.000000, 43.500000)">
                <g id="Group-3" transform="translate(0.000000, 0.236420)">
                    <mask id="mask-2" fill="white">
                        <use xlink:href="#path-1"></use>
                    </mask>
                    <g id="Clip-2"></g>
                    <path d="M4.85686788,18.7207287 C3.30508548,17.9273234 2.1073317,16.7872092 1.26489862,15.299953 C0.421173469,13.8126968 0.000387622582,12.0683306 0.000387622582,10.0668543 C0.000387622582,8.06581089 0.421173469,6.32144467 1.26489862,4.83418851 C2.1073317,3.34693235 3.30508548,2.20205675 4.85686788,1.39956172 C6.40865028,0.597932381 8.20678836,0.196252021 10.2521435,0.196252021 C11.5976246,0.196252021 12.7988239,0.331732574 13.8578949,0.601827988 C14.9161046,0.872356248 15.8937748,1.29654456 16.7909058,1.87309439 L16.7909058,6.41623777 C16.0014478,5.7855823 15.1094852,5.32546783 14.1132951,5.03719292 C13.1179665,4.748918 11.9740492,4.6043477 10.6828353,4.6043477 C8.83430625,4.6043477 7.40871654,5.08697012 6.40434336,6.05134926 C5.39953949,7.0157284 4.8973529,8.35451865 4.8973529,10.0668543 C4.8973529,11.7800557 5.4042771,13.1227416 6.41769481,14.0962104 C7.43111251,15.0701122 8.852826,15.5566302 10.6828353,15.5566302 C11.9740492,15.5566302 13.1313179,15.403403 14.1537801,15.0969486 C15.1762424,14.7904942 16.1272098,14.3035433 17.0062517,13.6369617 L17.0062517,18.1528358 C15.3015737,19.3249807 13.0503479,19.9110531 10.2521435,19.9110531 C8.20678836,19.9110531 6.40865028,19.5137012 4.85686788,18.7207287" id="Fill-1" fill="#FEFEFE" mask="url(#mask-2)"></path>
                </g>
                <g id="Group-6" transform="translate(20.673204, 0.236420)">
                    <mask id="mask-4" fill="white">
                        <use xlink:href="#path-3"></use>
                    </mask>
                    <g id="Clip-5"></g>
                    <path d="M12.9436655,14.7725311 C13.7331235,14.3396859 14.3606414,13.7176873 14.8275113,12.9065354 C15.2939504,12.0949506 15.5269547,11.1487509 15.5269547,10.0666379 C15.5269547,8.98539055 15.2982574,8.04351936 14.8408627,7.24102433 C14.3834681,6.43939499 13.7598264,5.81739642 12.9707991,5.37546145 C12.1809104,4.93352649 11.3018685,4.71234258 10.3332428,4.71234258 C9.34652796,4.71234258 8.45887225,4.93352649 7.66984495,5.37546145 C6.87995627,5.81739642 6.25717599,6.43939499 5.79978134,7.24102433 C5.341956,8.04351936 5.11325868,8.98539055 5.11325868,10.0666379 C5.11325868,11.1487509 5.341956,12.0949506 5.79978134,12.9065354 C6.25717599,13.7176873 6.88512457,14.3396859 7.6831964,14.7725311 C8.48126822,15.2053763 9.36504771,15.4217989 10.3332428,15.4217989 C11.2842102,15.4217989 12.1542075,15.2053763 12.9436655,14.7725311 M5.18087729,18.6668395 C3.64718394,17.8379409 2.43650941,16.6792143 1.54799231,15.1915253 C0.65990591,13.7042691 0.215862709,11.9962619 0.215862709,10.0666379 C0.215862709,8.13787962 0.65990591,6.42554395 1.54799231,4.92876519 C2.43650941,3.43241928 3.64718394,2.26979703 5.18087729,1.44046559 C6.71457063,0.611567006 8.43173867,0.196468444 10.3332428,0.196468444 C12.2170885,0.196468444 13.9260734,0.611567006 15.4597668,1.44046559 C16.9934601,2.26979703 18.1998277,3.43241928 19.0788696,4.92876519 C19.9574808,6.42554395 20.3976478,8.13787962 20.3976478,10.0666379 C20.3976478,11.9962619 19.9574808,13.7042691 19.0788696,15.1915253 C18.1998277,16.6792143 16.9934601,17.8379409 15.4597668,18.6668395 C13.9260734,19.4966038 12.2170885,19.9112695 10.3332428,19.9112695 C8.43173867,19.9112695 6.71457063,19.4966038 5.18087729,18.6668395" id="Fill-4" fill="#FEFEFE" mask="url(#mask-4)"></path>
                </g>
                <g id="Group-9" transform="translate(45.222635, 0.669265)">
                    <mask id="mask-6" fill="white">
                        <use xlink:href="#path-5"></use>
                    </mask>
                    <g id="Clip-8"></g>
                    <path d="M2.51119136,17.1926985 C1.07569573,15.6695162 0.358593957,13.6550546 0.358593957,11.148448 L0.358593957,0.168896203 L5.12118341,0.168896203 L5.12118341,11.2029864 C5.12118341,12.4647303 5.45755367,13.4204525 6.1302942,14.0692875 C6.80303472,14.7181224 7.73160615,15.0427564 8.91557779,15.0427564 C10.0995494,15.0427564 11.0233832,14.7181224 11.6870792,14.0692875 C12.3507752,13.4204525 12.6824079,12.4647303 12.6824079,11.2029864 L12.6824079,0.168896203 L17.445428,0.168896203 L17.445428,11.148448 C17.445428,13.6728013 16.7326332,15.6920242 15.3066128,17.2061168 C13.879731,18.7202093 11.7495296,19.4781213 8.91557779,19.4781213 C6.08076464,19.4781213 3.94625629,18.7167466 2.51119136,17.1926985" id="Fill-7" fill="#FEFEFE" mask="url(#mask-6)"></path>
                </g>
                <polygon id="Fill-10" fill="#FEFEFE" points="67.752551 0.838118192 72.4617347 0.838118192 79.3769215 12.0881982 79.3769215 0.838118192 84.1399417 0.838118192 84.1399417 19.7413345 79.4578916 19.7413345 72.5155712 8.4648509 72.5155712 19.7413345 67.752551 19.7413345"></polygon>
                <g id="Group-14" transform="translate(89.153194, 0.236420)">
                    <mask id="mask-8" fill="white">
                        <use xlink:href="#path-7"></use>
                    </mask>
                    <g id="Clip-13"></g>
                    <path d="M2.97763053,19.5729144 C1.81131725,19.347402 0.851305327,19.0366192 0.0980254439,18.6397001 L0.0980254439,14.3398157 C1.06665121,14.8449461 2.07619268,15.2232528 3.12535781,15.4756016 C4.17452293,15.7283832 5.17501988,15.8543411 6.12598728,15.8543411 C7.00459846,15.8543411 7.66872515,15.7188606 8.11707527,15.4487652 C8.5649947,15.1782369 8.7893851,14.7904076 8.7893851,14.2857101 C8.7893851,13.9074034 8.66879141,13.578441 8.42631195,13.298823 C8.18426319,13.019205 7.82980387,12.7625278 7.36379539,12.5279257 C6.89692552,12.2941892 6.17034853,11.9691225 5.1840644,11.5544568 C3.44363901,10.81559 2.17912801,9.9953483 1.38967002,9.09373171 C0.599781341,8.19254797 0.205698383,7.08359853 0.205698383,5.76688338 C0.205698383,4.68563603 0.50632123,3.72125689 1.10713623,2.87331311 C1.70838192,2.02666787 2.54693878,1.3683103 3.62323748,0.899106083 C4.69953618,0.430767559 5.93734429,0.196165452 7.33623112,0.196165452 C8.48445534,0.196165452 9.50691757,0.286630102 10.4044792,0.466693712 C11.3007487,0.647190167 12.1617016,0.935897926 12.9873377,1.3319513 L12.9873377,5.52405722 C11.4084217,4.69472578 9.82132255,4.27962722 8.22474821,4.27962722 C7.36379539,4.27962722 6.67727273,4.41986907 6.16604161,4.69905423 C5.6548105,4.97867224 5.39941028,5.37948691 5.39941028,5.90236393 C5.39941028,6.42524096 5.65911741,6.84899642 6.17939306,7.17319749 C6.6996687,7.49826425 7.65968063,7.94019921 9.05899814,8.49856954 C10.332123,9.02144656 11.3231447,9.53566668 12.0320633,10.0399314 C12.7405513,10.5450617 13.25652,11.1311341 13.5791081,11.7981486 C13.902127,12.4647303 14.0636364,13.3122412 14.0636364,14.3398157 C14.0636364,16.0885104 13.4313809,17.4541371 12.1668699,18.4366957 C10.9019282,19.4196872 9.0142062,19.9109665 6.50284257,19.9109665 C5.31844023,19.9109665 4.14308243,19.7979939 2.97763053,19.5729144" id="Fill-12" fill="#FEFEFE" mask="url(#mask-8)"></path>
                </g>
                <polygon id="Fill-15" fill="#FEFEFE" points="107.431321 0.838118192 120.777597 0.838118192 120.777597 4.86790715 112.194341 4.86790715 112.194341 8.41074525 118.463491 8.41074525 118.463491 12.1695731 112.194341 12.1695731 112.194341 15.7119783 120.777597 15.7119783 120.777597 19.7413345 107.431321 19.7413345"></polygon>
                <polygon id="Fill-17" fill="#FEFEFE" points="125.458958 0.838118192 130.221979 0.838118192 130.221979 15.7119783 138.401676 15.7119783 138.401676 19.7413345 125.458958 19.7413345"></polygon>
                <g id="Group-21" transform="translate(140.836205, 0.236420)">
                    <mask id="mask-10" fill="white">
                        <use xlink:href="#path-9"></use>
                    </mask>
                    <g id="Clip-20"></g>
                    <path d="M12.9033097,14.7725311 C13.6927677,14.3396859 14.3202856,13.7176873 14.7871554,12.9065354 C15.2535946,12.0949506 15.4865989,11.1487509 15.4865989,10.0666379 C15.4865989,8.98539055 15.2579015,8.04351936 14.8005069,7.24102433 C14.3431122,6.43939499 13.7194706,5.81739642 12.9304433,5.37546145 C12.1405546,4.93352649 11.2615127,4.71234258 10.292887,4.71234258 C9.30617214,4.71234258 8.41851643,4.93352649 7.62948913,5.37546145 C6.83960045,5.81739642 6.21682017,6.43939499 5.75942552,7.24102433 C5.30160019,8.04351936 5.07290286,8.98539055 5.07290286,10.0666379 C5.07290286,11.1487509 5.30160019,12.0949506 5.75942552,12.9065354 C6.21682017,13.7176873 6.84476875,14.3396859 7.64284058,14.7725311 C8.4409124,15.2053763 9.32469189,15.4217989 10.292887,15.4217989 C11.2438544,15.4217989 12.1138517,15.2053763 12.9033097,14.7725311 M5.14052147,18.6668395 C3.60682812,17.8379409 2.39615359,16.6792143 1.5076365,15.1915253 C0.619550093,13.7042691 0.175506891,11.9962619 0.175506891,10.0666379 C0.175506891,8.13787962 0.619550093,6.42554395 1.5076365,4.92876519 C2.39615359,3.43241928 3.60682812,2.26979703 5.14052147,1.44046559 C6.67421482,0.611567006 8.39138285,0.196468444 10.292887,0.196468444 C12.1767327,0.196468444 13.8857176,0.611567006 15.4194109,1.44046559 C16.9531043,2.26979703 18.1594719,3.43241928 19.0380831,4.92876519 C19.917125,6.42554395 20.3572919,8.13787962 20.3572919,10.0666379 C20.3572919,11.9962619 19.917125,13.7042691 19.0380831,15.1915253 C18.1594719,16.6792143 16.9531043,17.8379409 15.4194109,18.6668395 C13.8857176,19.4966038 12.1767327,19.9112695 10.292887,19.9112695 C8.39138285,19.9112695 6.67421482,19.4966038 5.14052147,18.6668395" id="Fill-19" fill="#FEFEFE" mask="url(#mask-10)"></path>
                </g>
                <path d="M173.435651,9.78966025 C174.386188,9.78966025 175.12181,9.60526819 175.642085,9.23561837 C176.162361,8.8664014 176.422499,8.23055178 176.422499,7.32850235 C176.422499,6.39139246 176.166668,5.74688593 175.655437,5.39498277 C175.144636,5.04351246 174.404277,4.8677773 173.435651,4.8677773 L170.583611,4.8677773 L170.583611,9.78966025 L173.435651,9.78966025 Z M165.82059,0.837988338 L174.269901,0.837988338 C176.476335,0.837988338 178.202548,1.3976572 179.449831,2.51526355 C180.696253,3.63330274 181.319895,5.23742711 181.319895,7.32850235 C181.319895,8.73481646 181.014534,9.93379771 180.405105,10.9258789 C179.794815,11.9175273 178.933862,12.6563941 177.821816,13.143345 L181.158816,19.7412046 L176.26142,19.7412046 L173.274573,13.8194492 L170.583611,13.8194492 L170.583611,19.7412046 L165.82059,19.7412046 L165.82059,0.837988338 Z" id="Fill-22" fill="#FEFEFE"></path>
                <g id="Group-26" transform="translate(184.766764, 0.236420)">
                    <mask id="mask-12" fill="white">
                        <use xlink:href="#path-11"></use>
                    </mask>
                    <g id="Clip-25"></g>
                    <path d="M3.12652067,19.5729144 C1.96020739,19.347402 1.00062616,19.0366192 0.247346276,18.6397001 L0.247346276,14.3398157 C1.21597204,14.8449461 2.22508283,15.2232528 3.27467864,15.4756016 C4.32384376,15.7283832 5.32434071,15.8543411 6.27530811,15.8543411 C7.15391929,15.8543411 7.81804598,15.7188606 8.2663961,15.4487652 C8.71431553,15.1782369 8.93870594,14.7904076 8.93870594,14.2857101 C8.93870594,13.9074034 8.81811224,13.578441 8.57563279,13.298823 C8.33358402,13.019205 7.9791247,12.7625278 7.51311622,12.5279257 C7.04624636,12.2941892 6.31923867,11.9691225 5.33295455,11.5544568 C3.59295985,10.81559 2.32801816,9.9953483 1.53899086,9.09373171 C0.749102173,8.19254797 0.355019215,7.08359853 0.355019215,5.76688338 C0.355019215,4.68563603 0.65521137,3.72125689 1.25645706,2.87331311 C1.85770276,2.02666787 2.69625961,1.3683103 3.77255831,0.899106083 C4.84885701,0.430767559 6.08623443,0.196165452 7.48555195,0.196165452 C8.63377617,0.196165452 9.6562384,0.286630102 10.5538,0.466693712 C11.4500696,0.647190167 12.3110224,0.935897926 13.1366585,1.3319513 L13.1366585,5.52405722 C11.5577425,4.69472578 9.97064339,4.27962722 8.37406904,4.27962722 C7.51311622,4.27962722 6.82659356,4.41986907 6.31536244,4.69905423 C5.80413133,4.97867224 5.54873112,5.37948691 5.54873112,5.90236393 C5.54873112,6.42524096 5.80843825,6.84899642 6.32871389,7.17319749 C6.84898953,7.49826425 7.80900146,7.94019921 9.20831898,8.49856954 C10.4814438,9.02144656 11.4724655,9.53566668 12.1813842,10.0399314 C12.8898721,10.5450617 13.4054102,11.1311341 13.728429,11.7981486 C14.0514478,12.4647303 14.2129572,13.3122412 14.2129572,14.3398157 C14.2129572,16.0885104 13.5807017,17.4541371 12.3161907,18.4366957 C11.0508183,19.4196872 9.16309634,19.9109665 6.6521634,19.9109665 C5.46776107,19.9109665 4.29240326,19.7979939 3.12652067,19.5729144" id="Fill-24" fill="#FEFEFE" mask="url(#mask-12)"></path>
                </g>
            </g>
        </g>
    </g>
</svg>